<svg width="960" height="420" viewBox="0 0 960 420" fill="none" xmlns="http://www.w3.org/2000/svg">
  <rect width="960" height="420" rx="24" fill="#F4F0E7"/>
  <rect x="70" y="110" width="190" height="120" rx="16" fill="#216869"/>
  <rect x="385" y="110" width="190" height="120" rx="16" fill="#E0583F"/>
  <rect x="700" y="110" width="190" height="120" rx="16" fill="#4969B2"/>
  <text x="165" y="162" text-anchor="middle" font-family="Arial, sans-serif" font-size="26" font-weight="700" fill="white">用户操作</text>
  <text x="165" y="196" text-anchor="middle" font-family="Arial, sans-serif" font-size="18" fill="white">点击 / 输入 / 选择</text>
  <text x="480" y="162" text-anchor="middle" font-family="Arial, sans-serif" font-size="26" font-weight="700" fill="white">更新状态</text>
  <text x="480" y="196" text-anchor="middle" font-family="Arial, sans-serif" font-size="18" fill="white">setState</text>
  <text x="795" y="162" text-anchor="middle" font-family="Arial, sans-serif" font-size="26" font-weight="700" fill="white">重新渲染</text>
  <text x="795" y="196" text-anchor="middle" font-family="Arial, sans-serif" font-size="18" fill="white">UI 反映新状态</text>
  <path d="M275 170H360" stroke="#1F2933" stroke-width="7" stroke-linecap="round"/>
  <path d="M350 150L375 170L350 190" stroke="#1F2933" stroke-width="7" stroke-linecap="round" stroke-linejoin="round"/>
  <path d="M590 170H675" stroke="#1F2933" stroke-width="7" stroke-linecap="round"/>
  <path d="M665 150L690 170L665 190" stroke="#1F2933" stroke-width="7" stroke-linecap="round" stroke-linejoin="round"/>
  <path d="M785 250C735 330 224 330 175 250" stroke="#C8922F" stroke-width="7" stroke-linecap="round"/>
  <path d="M198 255L175 250L183 273" stroke="#C8922F" stroke-width="7" stroke-linecap="round" stroke-linejoin="round"/>
  <text x="480" y="352" text-anchor="middle" font-family="Arial, sans-serif" font-size="20" font-weight="700" fill="#1F2933">状态变化形成循环：操作触发更新，更新驱动界面变化</text>
</svg>
